<?xml version="1.0" encoding="utf-8"?>
<!-- Generator: Adobe Illustrator 21.1.0, SVG Export Plug-In . SVG Version: 6.00 Build 0)  -->
<svg version="1.1" xmlns="http://www.w3.org/2000/svg" xmlns:xlink="http://www.w3.org/1999/xlink" x="0px" y="0px"
	 viewBox="0 0 318 320" style="enable-background:new 0 0 318 320;" xml:space="preserve">
<style type="text/css">
	.st0{display:none;}
	.st1{display:inline;}
	.st2{clip-path:url(#SVGID_2_);fill:#222222;}
	.st3{fill:#222222;}
</style>
<g id="Layer_1" class="st0">
	<g class="st1">
		<g>
			<defs>
				<rect id="SVGID_1_" x="3.7" y="4" width="310.4" height="312"/>
			</defs>
			<clipPath id="SVGID_2_">
				<use xlink:href="#SVGID_1_"  style="overflow:visible;"/>
			</clipPath>
			<path class="st2" d="M311,83c4.6-13.5,4.2-28-1.2-41.1c-5.4-13.1-15.4-23.7-28.2-29.9l-2.1-5c-0.5-1.1-1.4-2-2.5-2.5
				c-1.1-0.5-2.4-0.5-3.5,0L233,21.2c-3.5,1.5-6.3,4.2-7.7,7.7c-1.5,3.5-1.5,7.4,0,11l0.1,0.3L66.2,107.1c-2.3,1-4.1,2.8-5.1,5.1
				c-1,2.3-1,4.9,0,7.2l2,4.8L31,137.5l-0.1-0.3c-1-2.3-2.8-4.1-5.1-5.1c-2.3-1-4.9-1-7.2,0l-9,3.7c-2.3,1-4.1,2.8-5.1,5.1
				c-1,2.3-1,4.9,0,7.2l14.9,36c1,2.3,2.8,4.1,5.1,5.1c1.2,0.5,2.4,0.7,3.6,0.7c1.2,0,2.4-0.2,3.6-0.7l9-3.7c2.3-1,4.1-2.8,5.1-5.1
				c1-2.3,1-4.9,0-7.2l-0.1-0.3l32.1-13.3l2,4.8c1,2.3,2.8,4.1,5.1,5.1c1.2,0.5,2.4,0.7,3.6,0.7c1.2,0,2.5-0.2,3.6-0.7l12.8-5.4
				c0.2-0.1,0.5-0.1,0.7-0.2c0.2-0.1,0.5-0.2,0.7-0.4l38-16c0.5,0.6,1.1,1.2,1.7,1.8L57.6,308.5c-1.2,2.2-0.4,5,1.8,6.2
				c0.7,0.4,1.5,0.6,2.2,0.6c1.6,0,3.2-0.8,4-2.3l36.6-65.8h52.3v63.6c0,2.5,2,4.6,4.6,4.6c2.5,0,4.6-2,4.6-4.6v-63.6h52.3
				l36.6,65.8c0.8,1.5,2.4,2.3,4,2.3c0.7,0,1.5-0.2,2.2-0.6c2.2-1.2,3-4,1.8-6.2l-88.4-159.1c3.8-3.5,6.1-8.5,6.1-14.1
				c0-0.7,0-1.3-0.1-1.9l73.2-30.7l0.1,0.3c2.3,5.5,7.6,8.8,13.2,8.8c1.8,0,3.7-0.4,5.5-1.1l40.5-16.8c2.3-1,3.4-3.6,2.5-6L311,83z
				 M37.3,176.9c0,0.1-0.1,0.2-0.2,0.2l-9,3.7c0,0-0.1,0-0.2,0c-0.1,0-0.2-0.1-0.2-0.2l-14.9-36c0,0,0-0.1,0-0.2
				c0-0.1,0.1-0.2,0.2-0.2l9-3.7c0,0,0.1,0,0.1,0c0,0,0.1,0,0.1,0c0.1,0,0.2,0.1,0.2,0.2l7.5,18l5.6,13.5l1.9,4.5
				C37.4,176.7,37.4,176.8,37.3,176.9L37.3,176.9z M42.2,164.5l-7.7-18.6l32.1-13.3l7.7,18.6L42.2,164.5z M301.3,45.3
				c3,7.3,4.2,15.1,3.5,22.8l-17.2-41.5C293.6,31.7,298.3,38,301.3,45.3L301.3,45.3z M88.5,161.1c0,0-0.1,0-0.2,0
				c-0.1,0-0.2-0.1-0.2-0.2l-9.3-22.5l-5.6-13.5l-3.7-9c0,0-0.1-0.1,0-0.2c0-0.1,0.1-0.2,0.2-0.2l9.2-3.9l18.9,45.6L88.5,161.1z
				 M169.1,135.3c0,5.5-4.5,10-10,10c-5.5,0-10-4.5-10-10c0-5.5,4.5-10,10-10C164.6,125.3,169.1,129.8,169.1,135.3L169.1,135.3z
				 M107.2,237.9l46.7-84.1c0.2,0,0.3,0.1,0.5,0.1v84H107.2z M210.8,237.9h-47.2v-84c0.2,0,0.3-0.1,0.5-0.1L210.8,237.9z M175,124.8
				c-3.4-5.2-9.3-8.6-16-8.6c-10.6,0-19.2,8.6-19.2,19.2c0,1.4,0.2,2.7,0.4,4l-34,14.3l-18.9-45.6l141.5-59.4l18.9,45.6L175,124.8z
				 M266.6,102.3c-2.6,1.1-5.7-0.2-6.8-2.8l-26.1-63c-0.5-1.3-0.5-2.7,0-4c0.5-1.3,1.5-2.3,2.8-2.8l36.3-15l30.1,72.6L266.6,102.3z
				 M266.6,102.3"/>
		</g>
	</g>
</g>
<g id="Layer_2">
	<path class="st3" d="M310.9,64.6L161.6,9.5c-1.4-0.5-2.9-0.5-4.3,0L8.1,64.6l0,0c-0.5,0.2-1,0.4-1.4,0.7C5,66.5,4,68.3,4,70.4
		v177.2c0,2.6,1.6,4.9,4.1,5.8l149.3,55.1c0.7,0.3,1.4,0.4,2.1,0.4c0.7,0,1.5-0.1,2.1-0.4l0,0l149.3-55.1c2.4-0.9,4.1-3.2,4.1-5.8
		V70.4C315,67.8,313.4,65.5,310.9,64.6z M56.7,94.1l54.5,20.1v66.2l-54.5-20.1V94.1z M117.4,103.3l-49-18.1l49-18.1l49,18.1
		L117.4,103.3z M159.5,21.9l131.4,48.5l-131.4,48.5l-24.3-9L186.4,91c2.4-0.9,4.1-3.2,4.1-5.8c0-2.6-1.6-4.9-4.1-5.8l-66.9-24.7
		c-1.4-0.5-2.9-0.5-4.3,0L50.4,78.6l-22.3-8.2L159.5,21.9z M16.4,79.3l27.9,10.3v75.1c0,2.6,1.6,4.9,4.1,5.8l66.9,24.7
		c0.7,0.3,1.4,0.4,2.1,0.4c1.3,0,2.5-0.4,3.5-1.1c1.7-1.2,2.7-3.1,2.7-5.1v-70.5l29.7,11v164L16.4,243.3V79.3z M165.7,293.8v-164
		l136.9-50.5v164L165.7,293.8z"/>
</g>
</svg>
