<?xml version="1.0" encoding="utf-8"?>
<!-- Generator: Adobe Illustrator 21.1.0, SVG Export Plug-In . SVG Version: 6.00 Build 0)  -->
<svg version="1.1" id="Layer_1" xmlns="http://www.w3.org/2000/svg" xmlns:xlink="http://www.w3.org/1999/xlink" x="0px" y="0px"
	 viewBox="0 0 427 69" style="enable-background:new 0 0 427 69;" xml:space="preserve">
<style type="text/css">
	.st0{fill:#FFFFFF;}
	.st1{fill:#B9AD32;}
</style>
<g>
	<path class="st0" d="M100.1,21.1v38.3h-12V21.1H77.6V10.3h33.1v10.7H100.1z"/>
	<path class="st0" d="M134.4,33.6c-0.5-0.1-1-0.1-1.9-0.1c-5.7,0-7.6,4.1-7.6,9.7v16.2h-11.7V22.6h11.4v4.9c1.8-3.6,5.2-5.8,9.7-5.8
		V33.6z"/>
	<path class="st0" d="M151.4,35.8c3.2,0,5.7,0.8,7.1,1.3v-1.3c0-2.2-1.8-4-5.6-4c-3.2,0-6.4,0.9-9.2,2.3l-4.3-7.8
		c3.9-2.6,8.9-4.6,15-4.6c12.7,0,15.9,6.5,15.9,14.9v22.8h-10.4l-0.6-2c-1.9,1.9-4.6,2.9-8.3,2.9c-7.2,0-13.7-4.3-13.7-12.3
		C137.1,40.6,142.7,35.8,151.4,35.8z M153.8,51.3c2.8,0,4.9-1.3,4.9-3.8c0-2.5-2.2-3.9-5-3.9s-4.9,1.5-4.9,3.9
		C148.8,50,151.1,51.3,153.8,51.3z"/>
	<path class="st0" d="M202.6,56.5c-1.1,1.2-4.6,3.8-9.9,3.8c-10.6,0-18-8-18-19.3c0-11.4,6.7-19.3,17.4-19.3c5.6,0,9,2.8,9.8,3.7
		V8.7h11.7v50.6h-10.9V56.5z M194.3,32c-4.8,0-7.9,3.7-7.9,9.1c0,5.5,3.2,9,7.9,9c5,0,7.9-4.1,7.9-9C202.2,35.3,198.9,32,194.3,32z"
		/>
	<path class="st0" d="M230.4,44c0.3,3.3,3.4,6.1,7.8,6.1c4.4,0,7-2.9,7.7-3.9l7.7,6c-1,2.2-6.1,8.1-15.6,8.1
		c-12.1,0-19.5-8.3-19.5-19.2c0-10.8,7.3-19.4,18.1-19.4c11.7,0,18.1,7.5,18.1,20c0,0.7,0,1.5-0.1,2.3H230.4z M230.7,36.6h11.9
		c-0.1-2.9-2.3-5.5-6-5.5C232.8,31.1,231,34,230.7,36.6z"/>
	<path class="st0" d="M315.4,59.4h-12V40.2h-17.5v19.2h-12v-49h12v19h17.5v-19h12V59.4z"/>
	<path class="st0" d="M334.5,44.5c0,3.4,2,5.3,4.8,5.3c3.2,0,5-2.3,5-5.3V22.6H356v36.8h-11.4v-3.8c-1.4,2.2-4.6,4.7-9.2,4.7
		c-11.5,0-12.6-9.8-12.6-17.3V22.6h11.7V44.5z"/>
	<path class="st0" d="M384,37.4c0-3.4-2-5.3-4.8-5.3c-3.2,0-5,2.3-5,5.3v21.9h-11.7V22.6h11.4v3.8c1.4-2.2,4.6-4.7,9.2-4.7
		c11.5,0,12.6,9.8,12.6,17.3v20.4H384V37.4z"/>
	<path class="st0" d="M414.8,22.6h6.2V32h-6.2v13.5c0,3.2,2.2,4,4.6,4c0.6,0,1.2,0,2-0.1v10c0,0-1.5,0.4-4.5,0.4
		c-8.7,0-13.7-4-13.7-14.9V32h-3.6v-9.5h3.6v-7.8h11.7V22.6z"/>
</g>
<g>
	<g>
		<g>
			<polygon class="st1" points="31.1,64.3 23.6,56.7 45.8,34.5 23.6,12.3 31.1,4.7 60.9,34.5 			"/>
		</g>
		<g>
			<polygon class="st1" points="12.5,53.7 5,46.2 16.7,34.5 5,22.8 12.5,15.3 31.8,34.5 			"/>
		</g>
	</g>
</g>
</svg>
