<?xml version="1.0" encoding="utf-8"?>
<!-- Generator: Adobe Illustrator 21.1.0, SVG Export Plug-In . SVG Version: 6.00 Build 0)  -->
<svg version="1.1" id="Layer_1" xmlns="http://www.w3.org/2000/svg" xmlns:xlink="http://www.w3.org/1999/xlink" x="0px" y="0px"
	 viewBox="0 0 318 320" style="enable-background:new 0 0 318 320;" xml:space="preserve">
<style type="text/css">
	.st0{display:none;}
	.st1{clip-path:url(#SVGID_2_);}
</style>
<g>
	<g>
		<defs>
			<rect id="SVGID_1_" x="41.7" y="45" width="235.6" height="238"/>
		</defs>
		<clipPath id="SVGID_2_">
			<use xlink:href="#SVGID_1_"  style="overflow:visible;"/>
		</clipPath>
		<path class="st1" d="M133.2,228.4c22.3,0,42.6-7.9,58.4-21.3l71,71c1.6,1.6,3.6,2.4,5.9,2.4c2.2,0,4.3-0.8,5.9-2.4
			c3.2-3.3,3.2-8.5,0-11.8l-71-71c13.2-15.8,21.3-36.3,21.3-58.4c0-50.5-41-91.5-91.5-91.5c-50.3,0-91.5,41.2-91.5,91.5
			C41.7,187.4,82.8,228.4,133.2,228.4L133.2,228.4z M133.2,62c41.4,0,74.9,33.7,74.9,74.9c0,41.4-33.5,74.9-74.9,74.9
			c-41.4,0-74.9-33.7-74.9-74.9C58.3,95.7,92,62,133.2,62L133.2,62z M133.2,62"/>
	</g>
</g>
</svg>
